HIERARCHY
ROOT Hips
{
  OFFSET 38.1282 98.88 3.35729
  CHANNELS 6 Xposition Yposition Zposition Zrotation Xrotation Yrotation
  JOINT spine
  {
    OFFSET 0 8.30104 0.477351
    CHANNELS 3 Zrotation Xrotation Yrotation
    JOINT spine1
    {
      OFFSET 0 10.4565 0
      CHANNELS 3 Zrotation Xrotation Yrotation
      JOINT spine2
      {
        OFFSET 0 10.0192 0
        CHANNELS 3 Zrotation Xrotation Yrotation
        JOINT Neck
        {
          OFFSET 0 25.7235 1.22641
          CHANNELS 3 Zrotation Xrotation Yrotation
          JOINT Head
          {
            OFFSET 0 7.77175 0
            CHANNELS 3 Zrotation Xrotation Yrotation
            End Site
            {
              OFFSET 0 18.812 -6.20394
            }
          }
        }
        JOINT RightShoulder
        {
          OFFSET -4.2188 10.82 -0.587439
          CHANNELS 3 Zrotation Xrotation Yrotation
          JOINT RightArm
          {
            OFFSET 0 14.1914 0
            CHANNELS 3 Zrotation Xrotation Yrotation
            JOINT RightArmRoll
            {
              OFFSET 0 7.16408 0
              CHANNELS 3 Zrotation Xrotation Yrotation
              JOINT RightForeArm
              {
                OFFSET 0 20.8665 0
                CHANNELS 3 Zrotation Xrotation Yrotation
                JOINT RightForeArmRoll
                {
                  OFFSET 0 8.03921 0
                  CHANNELS 3 Zrotation Xrotation Yrotation
                  JOINT RightHand
                  {
                    OFFSET 0 16.133 0
                    CHANNELS 3 Zrotation Xrotation Yrotation
                    End Site
                    {
                      OFFSET 0 0 0
                    }
                  }
                }
              }
            }
          }
        }
        JOINT LeftShoulder
        {
          OFFSET 4.2188 10.82 -0.587439
          CHANNELS 3 Zrotation Xrotation Yrotation
          JOINT LeftArm
          {
            OFFSET 0 14.1914 0
            CHANNELS 3 Zrotation Xrotation Yrotation
            JOINT LeftArmRoll
            {
              OFFSET 0 7.16408 0
              CHANNELS 3 Zrotation Xrotation Yrotation
              JOINT LeftForeArm
              {
                OFFSET 0 20.8665 0
                CHANNELS 3 Zrotation Xrotation Yrotation
                JOINT LeftForeArmRoll
                {
                  OFFSET 0 8.03921 0
                  CHANNELS 3 Zrotation Xrotation Yrotation
                  JOINT LeftHand
                  {
                    OFFSET 0 16.133 0
                    CHANNELS 3 Zrotation Xrotation Yrotation
                    End Site
                    {
                      OFFSET 0 0 0
                    }
                  }
                }
              }
            }
          }
        }
      }
    }
  }
  JOINT RightUpLeg
  {
    OFFSET -7.35773 -1.34921 -1.13181
    CHANNELS 3 Zrotation Xrotation Yrotation
    JOINT RightUpLegRoll
    {
      OFFSET 0 18.9168 0
      CHANNELS 3 Zrotation Xrotation Yrotation
      JOINT RightLeg
      {
        OFFSET 0 -23.4256 0
        CHANNELS 3 Zrotation Xrotation Yrotation
        JOINT RightLegRoll
        {
          OFFSET 0 23.5023 0
          CHANNELS 3 Zrotation Xrotation Yrotation
          JOINT RightFoot
          {
            OFFSET 0 19.5617 0
            CHANNELS 3 Zrotation Xrotation Yrotation
            JOINT RightToeBase
            {
              OFFSET 0 16.3526 0
              CHANNELS 3 Zrotation Xrotation Yrotation
              End Site
              {
                OFFSET 0.00693125 7.91944 -0.912837
              }
            }
          }
        }
      }
    }
  }
  JOINT LeftUpLeg
  {
    OFFSET 7.35773 -1.34921 -1.13181
    CHANNELS 3 Zrotation Xrotation Yrotation
    JOINT LeftUpLegRoll
    {
      OFFSET 0 18.9169 0
      CHANNELS 3 Zrotation Xrotation Yrotation
      JOINT LeftLeg
      {
        OFFSET 0 23.4255 0
        CHANNELS 3 Zrotation Xrotation Yrotation
        JOINT LeftLegRoll
        {
          OFFSET 0 23.7195 0
          CHANNELS 3 Zrotation Xrotation Yrotation
          JOINT LeftFoot
          {
            OFFSET 0 19.3444 0
            CHANNELS 3 Zrotation Xrotation Yrotation
            JOINT LeftToeBase
            {
              OFFSET 0 16.3526 0
              CHANNELS 3 Zrotation Xrotation Yrotation
              End Site
              {
                OFFSET -0.0310629 7.91944 -0.912837
              }
            }
          }
        }
      }
    }
  }
}
MOTION
Frames: 4
Frame Time: 0.00208333
39.4345 98.78 2.77043 0.78635 -1.74509 1.36282 0.0463595 -1.51831 0.0932331 0.100655 0.938521 0.15738 0.0985898 2.58359 0.155747 0.60944 24.5568 -1.55521 -1.73984 -10.6027 -1.66019 75.9591 -0.515051 -2.203 92.308 20.3698 33.9646 -3.00996e-006 1.02957e-006 -1.9691e-005 2.14088 0.0134591 0.280524 -5.56181e-006 -1.98881e-006 -3.17373 8.03 -4.95137 0.697657 -67.7076 3.16938 -0.543299 -100.273 9.5154 -18.5367 9.23982e-006 1.56959e-006 1.97977e-006 -9.35831 3.92769 0.921299 3.09634e-005 -5.16415e-006 3 -8.02902 -4.95146 -0.697684 174.925 0.549471 2.21539 180 7.0155e-015 178.938 174.974 5.46581 179.81 4.46511e-006 -1.60841e-006 0.073722 -18.2504 67.492 19.1347 8.13649 25.2326 -3.48773 -176.484 0.534622 1.51228 4.54188e-006 -4.6773e-006 -1.12635 -3.40169 -8.89712 0.421107 2.20527e-006 -3.53308e-006 -0.112648 18.503 67.6949 -19.277 -8.13649 25.2327 3.48774 
39.4369 98.7842 2.77158 0.78883 -1.74654 1.36309 0.0457999 -1.51881 0.0931997 0.0987246 0.939521 0.159323 0.0966553 2.58459 0.157729 0.612056 24.5906 -1.56443 -1.75135 -10.6237 -1.67075 75.9586 -0.514686 -2.20279 92.2963 20.4233 34.0396 -3.00996e-006 1.02957e-006 -1.9691e-005 2.04204 0.01301 0.298288 -5.56181e-006 -1.98881e-006 -3.17375 8.03 -4.95137 0.697657 -67.7061 3.16946 -0.543563 -100.242 9.58895 -18.53 9.23982e-006 1.56959e-006 1.97977e-006 -9.34334 3.93799 0.922393 3.09634e-005 -5.16415e-006 3 -8.02902 -4.95146 -0.697684 174.911 0.556052 2.24041 180 7.0155e-015 178.938 174.948 5.47875 179.813 4.46511e-006 -1.60841e-006 0.0739473 -18.2445 67.4846 19.1284 8.13649 25.2326 -3.48773 -176.487 0.540872 1.5157 4.54188e-006 -4.6773e-006 -1.12635 -3.3991 -8.90348 0.421328 2.20527e-006 -3.53308e-006 -0.112633 18.5047 67.697 -19.2789 -8.13649 25.2327 3.48774 
39.4343 98.7922 2.76415 0.791453 -1.74801 1.36299 0.0452786 -1.51932 0.0931572 0.096831 0.940565 0.161327 0.0947578 2.58563 0.159771 0.613453 24.6253 -1.57351 -1.76215 -10.6455 -1.68149 75.9566 -0.514326 -2.20242 92.2867 20.477 34.1129 -3.00996e-006 1.02957e-006 -1.9691e-005 1.94423 0.0125816 0.315692 -5.56181e-006 -1.98881e-006 -3.17376 8.03 -4.95137 0.697657 -67.7054 3.16938 -0.543641 -100.212 9.66319 -18.5244 9.23982e-006 1.56959e-006 1.97977e-006 -9.32734 3.94734 0.9234 3.09634e-005 -5.16415e-006 3 -8.02902 -4.95146 -0.697684 174.896 0.563298 2.26826 180 7.0155e-015 178.938 174.919 5.49311 179.815 4.46511e-006 -1.60841e-006 0.0742104 -18.238 67.4764 19.1214 8.13649 25.2326 -3.48773 -176.49 0.547337 1.51935 4.54188e-006 -4.6773e-006 -1.12635 -3.3964 -8.91028 0.421552 2.20527e-006 -3.53308e-006 -0.11261 18.5067 67.6994 -19.2811 -8.13649 25.2327 3.48774 
39.4366 98.7862 2.75673 0.794177 -1.74948 1.36264 0.0447842 -1.51985 0.0931083 0.094963 0.94164 0.163373 0.0928862 2.58671 0.161854 0.613999 24.6605 -1.58251 -1.77245 -10.668 -1.69235 75.9535 -0.51397 -2.20195 92.2785 20.531 34.1849 -3.00996e-006 1.02957e-006 -1.9691e-005 1.84713 0.0121677 0.332843 -5.56181e-006 -1.98881e-006 -3.17376 8.03 -4.95137 0.697657 -67.7051 3.1692 -0.54359 -100.18 9.73791 -18.5197 9.23982e-006 1.56959e-006 1.97977e-006 -9.31063 3.95601 0.924347 3.09634e-005 -5.16415e-006 3 -8.02902 -4.95146 -0.697684 174.879 0.571009 2.2981 180 7.0155e-015 178.938 174.888 5.5085 179.818 4.46511e-006 -1.60841e-006 0.0745002 -18.231 67.4676 19.1139 8.13649 25.2326 -3.48773 -176.493 0.553952 1.52316 4.54188e-006 -4.6773e-006 -1.12635 -3.3936 -8.91738 0.421777 2.20527e-006 -3.53308e-006 -0.112581 18.5088 67.702 -19.2834 -8.13649 25.2327 3.48774 
